<svg width="53" height="52" viewBox="0 0 53 52" fill="none" xmlns="http://www.w3.org/2000/svg">
<circle cx="26.5" cy="26" r="26" fill="#5F7EE1"/>
<g clip-path="url(#clip0_217_4140)">
<path d="M37.4727 14.9166C37.2524 14.7736 37.0061 14.6755 36.7478 14.6277C36.4896 14.5799 36.2244 14.5835 35.9676 14.6383C35.7107 14.693 35.4672 14.7978 35.2508 14.9467C35.0345 15.0955 34.8496 15.2856 34.7067 15.5059L23.5 32.7799L18.0347 27.7266C17.8418 27.5483 17.6158 27.4098 17.3694 27.3188C17.123 27.2279 16.8612 27.1864 16.5987 27.1967C16.0688 27.2174 15.5687 27.4479 15.2087 27.8373C14.8486 28.2267 14.658 28.7432 14.6787 29.2732C14.6995 29.8032 14.9299 30.3032 15.3193 30.6633L22.4953 37.2979C22.4953 37.2979 22.7013 37.4753 22.7967 37.5373C23.017 37.6804 23.2634 37.7786 23.5217 37.8264C23.78 37.8743 24.0452 37.8707 24.3021 37.816C24.5591 37.7612 24.8027 37.6564 25.0191 37.5075C25.2355 37.3585 25.4205 37.1684 25.5633 36.948L38.062 17.6826C38.205 17.4623 38.3032 17.216 38.3509 16.9578C38.3987 16.6995 38.3951 16.4344 38.3404 16.1775C38.2856 15.9207 38.1808 15.6771 38.032 15.4607C37.8831 15.2444 37.693 15.0595 37.4727 14.9166Z" fill="white"/>
</g>
<defs>
<clipPath id="clip0_217_4140">
<rect width="24" height="24" fill="white" transform="translate(14.5 14)"/>
</clipPath>
</defs>
</svg>
