<svg width="25" height="24" viewBox="0 0 25 24" fill="none" xmlns="http://www.w3.org/2000/svg">
<path d="M13.6242 7.49998V11.3531L16.9617 13.275C17.2185 13.4258 17.4058 13.6716 17.4829 13.9592C17.5601 14.2469 17.5211 14.5534 17.3742 14.8125C17.274 14.9824 17.1315 15.1234 16.9607 15.222C16.7899 15.3205 16.5964 15.3732 16.3992 15.375C16.2016 15.3766 16.0073 15.3247 15.8367 15.225L11.9367 12.975L11.9086 12.9562L11.8523 12.9187L11.8148 12.8906L11.768 12.8531L11.7211 12.8156L11.693 12.7781L11.6461 12.7312L11.618 12.7031L11.5805 12.6469L11.5523 12.6094L11.5242 12.5625L11.4961 12.5156L11.4773 12.4687L11.4492 12.4125C11.4492 12.3937 11.4398 12.3844 11.4398 12.3656C11.4294 12.3485 11.423 12.3293 11.4211 12.3094L11.4023 12.2625C11.4023 12.2437 11.393 12.225 11.393 12.2062C11.393 12.1875 11.3836 12.1687 11.3836 12.15V12.0937C11.3753 12.0729 11.3721 12.0504 11.3742 12.0281V7.49998C11.3742 7.20161 11.4927 6.91547 11.7037 6.70449C11.9147 6.49351 12.2008 6.37498 12.4992 6.37498C12.7976 6.37498 13.0837 6.49351 13.2947 6.70449C13.5057 6.91547 13.6242 7.20161 13.6242 7.49998ZM19.1273 5.37186C17.3681 3.61661 14.9844 2.63086 12.4992 2.63086C10.0141 2.63086 7.63038 3.61661 5.87109 5.37186L4.60547 6.62811V5.59686C4.60547 5.44912 4.57637 5.30283 4.51983 5.16634C4.4633 5.02985 4.38043 4.90583 4.27596 4.80136C4.1715 4.6969 4.04748 4.61403 3.91099 4.55749C3.7745 4.50096 3.62821 4.47186 3.48047 4.47186C3.33273 4.47186 3.18644 4.50096 3.04995 4.55749C2.91346 4.61403 2.78944 4.6969 2.68497 4.80136C2.58051 4.90583 2.49764 5.02985 2.4411 5.16634C2.38457 5.30283 2.35547 5.44912 2.35547 5.59686V9.34686C2.35547 9.38436 2.36484 9.42186 2.36484 9.45936C2.36338 9.47556 2.36664 9.49184 2.37422 9.50623C2.37342 9.52849 2.3766 9.55071 2.38359 9.57186C2.38359 9.59061 2.39297 9.60936 2.39297 9.62811C2.39297 9.64686 2.40234 9.65623 2.41172 9.67498C2.42109 9.69373 2.42109 9.71248 2.42109 9.73123C2.43257 9.74422 2.4392 9.76079 2.43984 9.77811L2.46797 9.82498L2.49609 9.88123L2.51484 9.92811L2.55234 9.97498L2.58047 10.0219C2.58984 10.0312 2.59922 10.05 2.61797 10.0594L2.68359 10.1437H2.69297L2.76797 10.2187L2.81484 10.2469L2.86172 10.2844L2.90859 10.3125L2.95547 10.3406L3.00234 10.3687L3.04922 10.3875L3.10547 10.4062L3.15234 10.425H3.20859L3.26484 10.4437H7.23047C7.52884 10.4437 7.81499 10.3252 8.02596 10.1142C8.23694 9.90325 8.35547 9.6171 8.35547 9.31873C8.35547 9.02036 8.23694 8.73422 8.02596 8.52324C7.81499 8.31226 7.52884 8.19373 7.23047 8.19373H6.19922L7.46484 6.96561C8.46087 5.9681 9.7304 5.28845 11.1128 5.01267C12.4952 4.73688 13.9284 4.87736 15.2309 5.41632C16.5334 5.95529 17.6468 6.86851 18.4302 8.04044C19.2136 9.21237 19.6317 10.5903 19.6317 12C19.6317 13.4096 19.2136 14.7876 18.4302 15.9595C17.6468 17.1315 16.5334 18.0447 15.2309 18.5836C13.9284 19.1226 12.4952 19.2631 11.1128 18.9873C9.7304 18.7115 8.46087 18.0319 7.46484 17.0344C7.25139 16.827 6.96554 16.7111 6.66797 16.7111C6.3704 16.7111 6.08455 16.827 5.87109 17.0344C5.76621 17.1389 5.683 17.2631 5.62622 17.3998C5.56944 17.5366 5.54021 17.6832 5.54021 17.8312C5.54021 17.9793 5.56944 18.1259 5.62622 18.2627C5.683 18.3994 5.76621 18.5236 5.87109 18.6281C7.63924 20.3358 10.0074 21.2808 12.4655 21.2594C14.9236 21.2381 17.2749 20.2521 19.0131 18.5139C20.7513 16.7757 21.7373 14.4243 21.7587 11.9662C21.78 9.50815 20.8351 7.14 19.1273 5.37186Z" fill="#5F7EE1"/>
</svg>
