<svg width="24" height="24" viewBox="0 0 24 24" fill="none" xmlns="http://www.w3.org/2000/svg">
<circle cx="12" cy="12" r="12" fill="#5F7EE1"/>
<g clip-path="url(#clip0_229_3459)">
<path d="M16.4288 7.23925C16.337 7.17968 16.2344 7.13877 16.1268 7.11887C16.0192 7.09897 15.9087 7.10047 15.8017 7.12327C15.6946 7.14607 15.5932 7.18974 15.503 7.25177C15.4129 7.31381 15.3358 7.39299 15.2763 7.48481L10.6068 14.6823L8.32962 12.5768C8.24927 12.5025 8.15508 12.4447 8.05243 12.4068C7.94977 12.369 7.84066 12.3517 7.73132 12.3559C7.51049 12.3646 7.30215 12.4606 7.15212 12.6229C7.00208 12.7851 6.92266 13.0003 6.9313 13.2212C6.93995 13.442 7.03597 13.6503 7.19823 13.8004L10.1882 16.5648C10.1882 16.5648 10.2741 16.6387 10.3138 16.6645C10.4056 16.7241 10.5082 16.7651 10.6159 16.785C10.7235 16.8049 10.834 16.8035 10.9411 16.7807C11.0481 16.7578 11.1496 16.7142 11.2398 16.6521C11.33 16.59 11.407 16.5108 11.4666 16.419L16.6743 8.39175C16.7339 8.29996 16.7748 8.19733 16.7947 8.08973C16.8146 7.98213 16.8131 7.87166 16.7903 7.76463C16.7675 7.65761 16.7239 7.55612 16.6618 7.46598C16.5998 7.37583 16.5206 7.29879 16.4288 7.23925Z" fill="white"/>
</g>
<defs>
<clipPath id="clip0_229_3459">
<rect width="10" height="10" fill="white" transform="translate(6.85742 6.85718)"/>
</clipPath>
</defs>
</svg>
