<svg width="24" height="24" viewBox="0 0 24 24" fill="none" xmlns="http://www.w3.org/2000/svg">
<path d="M10.6008 16C10.6008 14.65 10.7218 13.679 10.9638 13.087C11.2058 12.495 11.7181 11.8493 12.5008 11.15C13.1841 10.55 13.7051 10.029 14.0638 9.587C14.4224 9.145 14.6014 8.641 14.6008 8.075C14.6008 7.39167 14.3718 6.825 13.9138 6.375C13.4558 5.925 12.8181 5.7 12.0008 5.7C11.1508 5.7 10.5048 5.95833 10.0628 6.475C9.62078 6.99167 9.30878 7.51667 9.12678 8.05L6.55078 6.95C6.90078 5.88333 7.54245 4.95833 8.47578 4.175C9.40911 3.39167 10.5841 3 12.0008 3C13.7508 3 15.0968 3.48767 16.0388 4.463C16.9808 5.43833 17.4514 6.609 17.4508 7.975C17.4508 8.80833 17.2718 9.521 16.9138 10.113C16.5558 10.705 15.9931 11.3757 15.2258 12.125C14.4091 12.9083 13.9134 13.5043 13.7388 13.913C13.5641 14.3217 13.4764 15.0173 13.4758 16H10.6008ZM12.0008 22C11.4508 22 10.9801 21.804 10.5888 21.412C10.1974 21.02 10.0014 20.5493 10.0008 20C10.0008 19.45 10.1968 18.979 10.5888 18.587C10.9808 18.195 11.4514 17.9993 12.0008 18C12.5508 18 13.0218 18.196 13.4138 18.588C13.8058 18.98 14.0014 19.4507 14.0008 20C14.0008 20.55 13.8048 21.021 13.4128 21.413C13.0208 21.805 12.5501 22.0007 12.0008 22Z" fill="#5F7EE1"/>
</svg>
