<svg width="14" height="14" viewBox="0 0 14 14" fill="none" xmlns="http://www.w3.org/2000/svg">
<circle cx="7" cy="7" r="7" fill="#5F7EE1"/>
<path d="M9.50065 7.41585H7.41732V9.49919C7.41732 9.60969 7.37342 9.71567 7.29528 9.79381C7.21714 9.87195 7.11116 9.91585 7.00065 9.91585C6.89014 9.91585 6.78416 9.87195 6.70602 9.79381C6.62788 9.71567 6.58398 9.60969 6.58398 9.49919V7.41585H4.50065C4.39014 7.41585 4.28416 7.37195 4.20602 7.29381C4.12788 7.21567 4.08398 7.10969 4.08398 6.99919C4.08398 6.88868 4.12788 6.7827 4.20602 6.70456C4.28416 6.62642 4.39014 6.58252 4.50065 6.58252H6.58398V4.49919C6.58398 4.38868 6.62788 4.2827 6.70602 4.20456C6.78416 4.12642 6.89014 4.08252 7.00065 4.08252C7.11116 4.08252 7.21714 4.12642 7.29528 4.20456C7.37342 4.2827 7.41732 4.38868 7.41732 4.49919V6.58252H9.50065C9.61116 6.58252 9.71714 6.62642 9.79528 6.70456C9.87342 6.7827 9.91732 6.88868 9.91732 6.99919C9.91732 7.10969 9.87342 7.21567 9.79528 7.29381C9.71714 7.37195 9.61116 7.41585 9.50065 7.41585Z" fill="white"/>
</svg>
