<svg width="24" height="25" viewBox="0 0 24 25" fill="none" xmlns="http://www.w3.org/2000/svg">
<path d="M7.5 11.5C6.53333 11.5 5.70833 11.1583 5.025 10.475C4.34167 9.79167 4 8.96667 4 8C4 7.03333 4.34167 6.20833 5.025 5.525C5.70833 4.84167 6.53333 4.5 7.5 4.5C8.46667 4.5 9.29167 4.84167 9.975 5.525C10.6583 6.20833 11 7.03333 11 8C11 8.96667 10.6583 9.79167 9.975 10.475C9.29167 11.1583 8.46667 11.5 7.5 11.5ZM7.5 9.5C7.91667 9.5 8.271 9.354 8.563 9.062C8.855 8.77 9.00067 8.416 9 8C9 7.58333 8.854 7.229 8.562 6.937C8.27 6.645 7.916 6.49933 7.5 6.5C7.08333 6.5 6.729 6.646 6.437 6.938C6.145 7.23 5.99933 7.584 6 8C6 8.41667 6.146 8.771 6.438 9.063C6.73 9.355 7.084 9.50067 7.5 9.5ZM16.5 20.5C15.5333 20.5 14.7083 20.1583 14.025 19.475C13.3417 18.7917 13 17.9667 13 17C13 16.0333 13.3417 15.2083 14.025 14.525C14.7083 13.8417 15.5333 13.5 16.5 13.5C17.4667 13.5 18.2917 13.8417 18.975 14.525C19.6583 15.2083 20 16.0333 20 17C20 17.9667 19.6583 18.7917 18.975 19.475C18.2917 20.1583 17.4667 20.5 16.5 20.5ZM16.5 18.5C16.9167 18.5 17.271 18.354 17.563 18.062C17.855 17.77 18.0007 17.416 18 17C18 16.5833 17.854 16.229 17.562 15.937C17.27 15.645 16.916 15.4993 16.5 15.5C16.0833 15.5 15.729 15.646 15.437 15.938C15.145 16.23 14.9993 16.584 15 17C15 17.4167 15.146 17.771 15.438 18.063C15.73 18.355 16.084 18.5007 16.5 18.5ZM4.7 19.8C4.51667 19.6167 4.425 19.3833 4.425 19.1C4.425 18.8167 4.51667 18.5833 4.7 18.4L17.9 5.2C18.0833 5.01667 18.3167 4.925 18.6 4.925C18.8833 4.925 19.1167 5.01667 19.3 5.2C19.4833 5.38333 19.575 5.61667 19.575 5.9C19.575 6.18333 19.4833 6.41667 19.3 6.6L6.1 19.8C5.91667 19.9833 5.68333 20.075 5.4 20.075C5.11667 20.075 4.88333 19.9833 4.7 19.8Z" fill="#5F7EE1"/>
</svg>
