<svg width="14" height="14" viewBox="0 0 14 14" fill="none" xmlns="http://www.w3.org/2000/svg">
<circle cx="7" cy="7" r="7" fill="#5F7EE1"/>
<path d="M9.49967 7.41585H7.41634V9.49919C7.41634 9.60969 7.37244 9.71567 7.2943 9.79381C7.21616 9.87195 7.11018 9.91585 6.99967 9.91585C6.88917 9.91585 6.78319 9.87195 6.70505 9.79381C6.62691 9.71567 6.58301 9.60969 6.58301 9.49919V7.41585H4.49967C4.38917 7.41585 4.28319 7.37195 4.20505 7.29381C4.12691 7.21567 4.08301 7.10969 4.08301 6.99919C4.08301 6.88868 4.12691 6.7827 4.20505 6.70456C4.28319 6.62642 4.38917 6.58252 4.49967 6.58252H6.58301V4.49919C6.58301 4.38868 6.62691 4.2827 6.70505 4.20456C6.78319 4.12642 6.88917 4.08252 6.99967 4.08252C7.11018 4.08252 7.21616 4.12642 7.2943 4.20456C7.37244 4.2827 7.41634 4.38868 7.41634 4.49919V6.58252H9.49967C9.61018 6.58252 9.71616 6.62642 9.7943 6.70456C9.87244 6.7827 9.91634 6.88868 9.91634 6.99919C9.91634 7.10969 9.87244 7.21567 9.7943 7.29381C9.71616 7.37195 9.61018 7.41585 9.49967 7.41585Z" fill="white"/>
</svg>
